<svg width="176" height="47" viewBox="0 0 176 47" fill="none" xmlns="http://www.w3.org/2000/svg">
<path d="M10.656 0.64801V36.68H27.936L26.848 45H0.160034V0.64801H10.656Z" fill="url(#paint0_linear_22_179)"/>
<path d="M60.515 45H51.747L51.299 40.712C48.8244 44.296 45.3897 46.088 40.995 46.088C37.8804 46.088 35.5124 45.1493 33.891 43.272C32.3124 41.3947 31.523 38.7707 31.523 35.4V11.016H41.635V34.12C41.635 35.784 41.891 36.9573 42.403 37.64C42.9577 38.28 43.7897 38.6 44.899 38.6C47.0324 38.6 48.867 37.2773 50.403 34.632V11.016H60.515V45Z" fill="url(#paint1_linear_22_179)"/>
<path d="M83.188 9.92801C85.5347 9.92801 87.6467 10.2693 89.524 10.952C91.4014 11.6347 93.172 12.68 94.836 14.088L90.484 20.104C88.3507 18.4827 86.196 17.672 84.02 17.672C81.7587 17.672 80.052 18.504 78.9 20.168C77.748 21.832 77.172 24.52 77.172 28.232C77.172 31.816 77.748 34.3547 78.9 35.848C80.052 37.3413 81.716 38.088 83.892 38.088C85.044 38.088 86.0894 37.9173 87.028 37.576C87.9667 37.192 89.0974 36.5947 90.42 35.784L94.836 42.056C91.4654 44.744 87.6467 46.088 83.38 46.088C79.924 46.088 76.9374 45.3627 74.42 43.912C71.9027 42.4187 69.9614 40.3493 68.596 37.704C67.2307 35.016 66.548 31.88 66.548 28.296C66.548 24.712 67.2307 21.5333 68.596 18.76C69.9614 15.9867 71.9027 13.832 74.42 12.296C76.9374 10.7173 79.86 9.92801 83.188 9.92801Z" fill="url(#paint2_linear_22_179)"/>
<path d="M95.5035 28.872V21.064H115.92V28.872H95.5035Z" fill="url(#paint3_linear_22_179)"/>
<path d="M156.894 30.28C156.894 33.3093 156.233 36.0187 154.91 38.408C153.63 40.7973 151.689 42.6747 149.086 44.04C146.483 45.4053 143.305 46.088 139.55 46.088C133.918 46.088 129.63 44.6587 126.686 41.8C123.742 38.9413 122.27 35.1013 122.27 30.28V0.64801H132.766V29.832C132.766 32.6907 133.299 34.824 134.366 36.232C135.475 37.5973 137.203 38.28 139.55 38.28C141.939 38.28 143.667 37.5973 144.734 36.232C145.843 34.824 146.398 32.6907 146.398 29.832V0.64801H156.894V30.28Z" fill="url(#paint4_linear_22_179)"/>
<path d="M175.094 0.64801V45H164.598V0.64801H175.094Z" fill="url(#paint5_linear_22_179)"/>
<defs>
<linearGradient id="paint0_linear_22_179" x1="87.6268" y1="46.088" x2="88.0164" y2="7.95053" gradientUnits="userSpaceOnUse">
<stop stop-color="#9263FF"/>
<stop offset="1" stop-color="#2D0390"/>
</linearGradient>
<linearGradient id="paint1_linear_22_179" x1="87.6268" y1="46.088" x2="88.0164" y2="7.95053" gradientUnits="userSpaceOnUse">
<stop stop-color="#9263FF"/>
<stop offset="1" stop-color="#2D0390"/>
</linearGradient>
<linearGradient id="paint2_linear_22_179" x1="87.6268" y1="46.088" x2="88.0164" y2="7.95053" gradientUnits="userSpaceOnUse">
<stop stop-color="#9263FF"/>
<stop offset="1" stop-color="#2D0390"/>
</linearGradient>
<linearGradient id="paint3_linear_22_179" x1="87.6268" y1="46.088" x2="88.0164" y2="7.95053" gradientUnits="userSpaceOnUse">
<stop stop-color="#9263FF"/>
<stop offset="1" stop-color="#2D0390"/>
</linearGradient>
<linearGradient id="paint4_linear_22_179" x1="87.6268" y1="46.088" x2="88.0164" y2="7.95053" gradientUnits="userSpaceOnUse">
<stop stop-color="#9263FF"/>
<stop offset="1" stop-color="#2D0390"/>
</linearGradient>
<linearGradient id="paint5_linear_22_179" x1="87.6268" y1="46.088" x2="88.0164" y2="7.95053" gradientUnits="userSpaceOnUse">
<stop stop-color="#9263FF"/>
<stop offset="1" stop-color="#2D0390"/>
</linearGradient>
</defs>
</svg>
